<svg width="2081" height="2086" xmlns="http://www.w3.org/2000/svg" xmlns:xlink="http://www.w3.org/1999/xlink" overflow="hidden"><defs><clipPath id="clip0"><rect x="-2530" y="806" width="2081" height="2086"/></clipPath></defs><g clip-path="url(#clip0)" transform="translate(2530 -806)"><path d="M-2530 1157.51C-2530 966.136-2374.86 811-2183.49 811L-797.507 811C-606.136 811-451 966.136-451 1157.51L-451 2543.49C-451 2734.86-606.136 2890-797.507 2890L-2183.49 2890C-2374.86 2890-2530 2734.86-2530 2543.49Z" fill="#FFFFFF" fill-rule="evenodd" fill-opacity="1"/><path d="M-711 1856.48C-711 2287.02-1059.98 2636-1490.5 2636-1920.99 2636-2270 2287.02-2270 1856.48-2270 1425.98-1920.99 1077-1490.5 1077-1059.98 1077-711 1425.98-711 1856.48" fill="#000000" fill-rule="evenodd" fill-opacity="1"/><path d="M-1174 1786.29-1332.26 1786.29-1332.26 2103-1648.74 2103-1648.74 1786.29-1807 1786.29-1490.5 1372-1174 1786.29" fill="#FFFFFF" fill-rule="evenodd" fill-opacity="1"/><path d="M-1174 2340-1807 2340-1807 2261-1174 2261-1174 2340" fill="#FFFFFF" fill-rule="evenodd" fill-opacity="1"/></g></svg>